<svg id="foreground" xmlns="http://www.w3.org/2000/svg" xmlns:xlink="http://www.w3.org/1999/xlink" width="120" height="160" viewBox="0 0 120 160">
  <defs>
    <clipPath id="clip-path">
      <rect x="76.53" y="52.59" width="24.85" height="25.15" fill="none"/>
    </clipPath>
  </defs>
  <title>digid_menu_nfc_reader</title>
  <path d="M212.6,118.09H186.79c2.73-42.87-13.32-34.76-13.32-34.76h0a1.26,1.26,0,0,1-1.84-1.46,115.85,115.85,0,0,0,2.77-12.48L161.8,58.93a7.53,7.53,0,0,1-.91,3.72C159.06,66.93,155.11,76.77,150,88c-2.48,5.46.5,14.83,1.81,25.27a19.21,19.21,0,0,1-3.67,13.9l-27.89,37.44,57.15.18-3.65,4.84,19.07-24.74a11.5,11.5,0,0,1,5.2-3.75c12.36-4.53,21.24-17.11,21.24-31.94Z" fill="#fed6c3" stroke="#000" stroke-miterlimit="10" stroke-width="2"/>
  <path d="M55,120H83.92A5.07,5.07,0,0,0,89,114.92V103" fill="none" stroke="#000" stroke-miterlimit="10" stroke-width="2"/>
  <g>
    <rect x="-101.85" y="26.25" width="157.63" height="82.86" fill="#fff"/>
    <rect x="-101.85" y="20.19" width="157.63" height="12.13" fill="#e17000"/>
    <rect x="-101.85" y="100.49" width="157.63" height="12.13" fill="#e17000"/>
    <path d="M52.26,19.18a4,4,0,0,1,4,4l.1,90.82-158.93.17-.1-90.82a4,4,0,0,1,4-4l150.94-.17h0m0-2h0l-150.94.17a6,6,0,0,0-6,6l.1,90.81v2h2L56.35,116h2v-2l-.1-90.82a6,6,0,0,0-6-6Z"/>
    <path d="M52.26,20.8a2,2,0,0,1,2,2l.1,88.82-154.93.17-.1-88.82a2,2,0,0,1,2-2L52.25,20.8h0m0-2h0L-98.69,19a4,4,0,0,0-4,4l.1,90.82,158.93-.17-.1-90.82a4,4,0,0,0-4-4Z" fill="#fff"/>
    <g>
      <path d="M-121.29,141.82a3.65,3.65,0,0,1-3.54-3.74v-3.42a2.39,2.39,0,0,1,.81-1.82l20.66-18.16,160.7-.18L77.7,132.62a2.47,2.47,0,0,1,.8,1.8v3.94a3.06,3.06,0,0,1-1.11,2.47,3.83,3.83,0,0,1-2.42.77l-196.26.22Z" fill="#b4b4b4"/>
      <path d="M57,115.5,77,133.37a1.4,1.4,0,0,1,.47,1.06v3.93A2.23,2.23,0,0,1,75,140.6l-196.26.22h0a2.66,2.66,0,0,1-2.54-2.75v-3.41a1.41,1.41,0,0,1,.47-1.07L-103,115.68l160-.18m.76-2H57l-159.95.18h-.75l-.57.5-20.37,17.9a3.44,3.44,0,0,0-1.15,2.58v3.42a4.66,4.66,0,0,0,4.54,4.74L75,142.6a4.2,4.2,0,0,0,4.53-4.24v-3.93a3.46,3.46,0,0,0-1.14-2.56L58.29,114l-.57-.51Z"/>
    </g>
    <g>
      <path d="M-113.5,134a1.61,1.61,0,0,1-1.52-1.07,1.7,1.7,0,0,1,.46-1.9l12.92-11.38,156.91-.17,12.95,11.35a1.7,1.7,0,0,1,.46,1.9,1.62,1.62,0,0,1-1.52,1.08L-113.5,134Z" fill="#e6e6e6"/>
      <path d="M54.89,120.47l12.67,11.1a.7.7,0,0,1-.4,1.23L-113.5,133h0a.7.7,0,0,1-.4-1.22l12.64-11.13,156.15-.17m.75-2h-.75l-156.15.17H-102l-.57.5-12.64,11.13a2.72,2.72,0,0,0-.74,3A2.62,2.62,0,0,0-113.5,135l180.67-.19a2.63,2.63,0,0,0,2.45-1.73,2.71,2.71,0,0,0-.74-3L56.21,119l-.57-.49Z"/>
    </g>
    <g>
      <g>
        <line x1="53.49" y1="124.53" x2="49.49" y2="124.54" fill="none" stroke="#000" stroke-linecap="round" stroke-miterlimit="10" stroke-width="2"/>
        <line x1="42.33" y1="124.55" x2="-92.26" y2="124.69" fill="none" stroke="#000" stroke-linecap="round" stroke-miterlimit="10" stroke-width="2" stroke-dasharray="8.19 7.16"/>
      </g>
      <g>
        <line x1="59.71" y1="128.74" x2="55.71" y2="128.74" fill="none" stroke="#000" stroke-linecap="round" stroke-miterlimit="10" stroke-width="2"/>
        <line x1="48.68" y1="128.75" x2="-98.54" y2="128.91" fill="none" stroke="#000" stroke-linecap="round" stroke-miterlimit="10" stroke-width="2" stroke-dasharray="8.04 7.03"/>
      </g>
    </g>
    <g>
      <rect x="28.54" y="37.63" width="18.65" height="18.35" rx="2.54" ry="2.54" transform="translate(-8.97 84.62) rotate(-89.94)"/>
      <g>
        <path d="M30.73,51.71V47.3H32c1.46,0,2.27.74,2.27,2.07a2.08,2.08,0,0,1-2.31,2.33Zm.79-.66H32c.87,0,1.44-.48,1.44-1.63A1.34,1.34,0,0,0,31.92,48h-.39Z" fill="#fff"/>
        <path d="M35.33,47a.44.44,0,1,1,0,.87.4.4,0,0,1-.44-.43A.41.41,0,0,1,35.33,47Zm.37,4.71H35V48.41l.75,0Z" fill="#fff"/>
        <path d="M37.51,51.07h.78c.7,0,1,.28,1,.82S38.77,53,37.58,53c-.93,0-1.36-.34-1.36-.86a.76.76,0,0,1,.5-.72v0a.49.49,0,0,1-.26-.44.54.54,0,0,1,.36-.5v0a.94.94,0,0,1-.47-.88,1.21,1.21,0,0,1,1.37-1.24,1.68,1.68,0,0,1,.5.07h1.06v.5h-.51v0a.81.81,0,0,1,.26.63c0,.73-.49,1.11-1.39,1.11a1.84,1.84,0,0,1-.41,0,.24.24,0,0,0-.14.21C37.09,51,37.21,51.07,37.51,51.07Zm.14,1.4c.71,0,1-.18,1-.44s-.12-.3-.44-.31l-1.09,0a.38.38,0,0,0-.18.34C36.91,52.3,37.14,52.47,37.65,52.47Zm.69-2.95a.56.56,0,0,0-.64-.62.59.59,0,0,0-.63.66.55.55,0,0,0,.62.61A.57.57,0,0,0,38.34,49.52Z" fill="#fff"/>
        <path d="M40.16,47a.41.41,0,0,1,.44.44.42.42,0,0,1-.44.43.4.4,0,0,1-.44-.43A.41.41,0,0,1,40.16,47Zm.37,4.7h-.75v-3.3l.74,0Z" fill="#f98a3c"/>
        <path d="M41.47,51.72v-4.4h1.24c1.47,0,2.28.75,2.28,2.08a2.07,2.07,0,0,1-2.31,2.32Zm.8-.66h.45c.88,0,1.45-.48,1.45-1.62A1.34,1.34,0,0,0,42.67,48h-.4Z" fill="#f98a3c"/>
      </g>
    </g>
  </g>
  <path d="M107.71,50.35a5,5,0,0,0-.74-.45,5.29,5.29,0,0,0-.84-.35,6.37,6.37,0,0,0-.91-.21,6.14,6.14,0,0,0-1-.08H73.75a6.14,6.14,0,0,0-1,.08,5.37,5.37,0,0,0-.92.22,5.09,5.09,0,0,0-.84.34,5,5,0,0,0-.74.45l-1.73,41a.72.72,0,0,0,.08.35.89.89,0,0,0,.22.3,1.13,1.13,0,0,0,.34.2,1.42,1.42,0,0,0,.42.07h38.78a1.42,1.42,0,0,0,.42-.07,1.27,1.27,0,0,0,.34-.2,1.05,1.05,0,0,0,.22-.3.84.84,0,0,0,.07-.35Z" fill="#f3f3f3"/>
  <g>
    <polygon points="84.39 81.73 84.32 89.68 81.63 89.68 79.24 83.24 79.16 83.24 79.04 89.68 77.49 89.68 77.66 81.73 80.29 81.73 82.69 88.14 82.78 88.14 82.85 81.73 84.39 81.73"/>
    <polygon points="91.91 81.73 91.92 83 88.98 83 88.98 85.03 91.78 85.03 91.79 86.31 88.98 86.31 88.98 89.68 87.22 89.68 87.25 81.73 91.91 81.73"/>
    <path d="M98.61,81.65h.87l.2,0,.21,0,.21,0,.22,0-.09,1.31-.24,0-.23,0-.2,0h-1a3.08,3.08,0,0,0-.53,0,2.62,2.62,0,0,0-.48.13,2.31,2.31,0,0,0-.45.21,3,3,0,0,0-.4.3,2.5,2.5,0,0,0-.34.39,2.16,2.16,0,0,0-.24.48,3.06,3.06,0,0,0-.14.56,4.68,4.68,0,0,0,0,.66,3.21,3.21,0,0,0,.06.63,2.84,2.84,0,0,0,.15.54,2.28,2.28,0,0,0,.26.46,2.16,2.16,0,0,0,.37.37,2.36,2.36,0,0,0,.42.28,3.55,3.55,0,0,0,.44.21,3.45,3.45,0,0,0,.46.12,3.89,3.89,0,0,0,.49,0h.75l.2,0,.2,0,.22,0,.24,0,.26,0,0,1.31-.28,0-.24,0-.22,0-.19,0-.2,0h-.83a6.33,6.33,0,0,1-.89-.06,5.17,5.17,0,0,1-.82-.17,4.09,4.09,0,0,1-.75-.31,4.69,4.69,0,0,1-.67-.42,3.19,3.19,0,0,1-.56-.54,3.14,3.14,0,0,1-.4-.66,3.74,3.74,0,0,1-.24-.78,4.29,4.29,0,0,1-.09-.9,6.28,6.28,0,0,1,.07-1,4.23,4.23,0,0,1,.25-.87,3.33,3.33,0,0,1,.41-.74,3.29,3.29,0,0,1,.58-.6,4.36,4.36,0,0,1,.69-.46,4,4,0,0,1,.76-.34,5.3,5.3,0,0,1,.83-.19A5.21,5.21,0,0,1,98.61,81.65Z"/>
  </g>
  <path d="M109.31,45a3.68,3.68,0,0,0-.55-1.78,4.84,4.84,0,0,0-1.34-1.45,6.34,6.34,0,0,0-1.93-1,7.62,7.62,0,0,0-2.32-.36H74.82a7.62,7.62,0,0,0-2.32.36,6.46,6.46,0,0,0-1.93,1,5.11,5.11,0,0,0-1.34,1.45A3.79,3.79,0,0,0,68.68,45L66.53,91.36a2.07,2.07,0,0,0,.2,1,2.48,2.48,0,0,0,.63.85,3.11,3.11,0,0,0,1,.57,3.66,3.66,0,0,0,1.21.21h38.92a3.66,3.66,0,0,0,1.21-.21,3.22,3.22,0,0,0,1-.57,2.62,2.62,0,0,0,.63-.85,2.19,2.19,0,0,0,.19-1Zm-38.8,0a2.57,2.57,0,0,1,.38-1.23,3.29,3.29,0,0,1,.93-1,4.57,4.57,0,0,1,1.34-.68,5.34,5.34,0,0,1,1.62-.25h28.43a5.34,5.34,0,0,1,1.62.25,4.45,4.45,0,0,1,1.34.68,3.29,3.29,0,0,1,.93,1,2.57,2.57,0,0,1,.38,1.23l.15,3.57a6.82,6.82,0,0,0-.79-.31A7.38,7.38,0,0,0,106,48a6.45,6.45,0,0,0-.88-.14,7,7,0,0,0-.92,0H73.8a7,7,0,0,0-.92,0A6.21,6.21,0,0,0,72,48a8.15,8.15,0,0,0-.85.22,6.82,6.82,0,0,0-.79.31Zm38.86,46.72a1.05,1.05,0,0,1-.22.3,1.27,1.27,0,0,1-.34.2,1.42,1.42,0,0,1-.42.07H69.61a1.42,1.42,0,0,1-.42-.07,1.13,1.13,0,0,1-.34-.2.89.89,0,0,1-.22-.3.72.72,0,0,1-.08-.35l1.73-41h0A5,5,0,0,1,71,49.9a5.09,5.09,0,0,1,.84-.34,5.37,5.37,0,0,1,.92-.22,6.14,6.14,0,0,1,1-.08h30.5a6.14,6.14,0,0,1,1,.08,6.37,6.37,0,0,1,.91.21,5.29,5.29,0,0,1,.84.35,5,5,0,0,1,.74.45l1.73,41A.84.84,0,0,1,109.37,91.71Z" fill="#fff"/>
  <path d="M111.15,45a4.94,4.94,0,0,0-.73-2.32,6.76,6.76,0,0,0-1.75-1.88,8.88,8.88,0,0,0-2.52-1.26,10.28,10.28,0,0,0-3-.46H74.87a10.16,10.16,0,0,0-3,.46,8.88,8.88,0,0,0-2.52,1.26,6.76,6.76,0,0,0-1.75,1.88A4.94,4.94,0,0,0,66.85,45L64.5,91.36a3.33,3.33,0,0,0,0,.55L65,98.27a3.61,3.61,0,0,0,.47,1.51A4.34,4.34,0,0,0,66.51,101a4.78,4.78,0,0,0,1.51.82,5.71,5.71,0,0,0,1.83.3h38.3a5.71,5.71,0,0,0,1.83-.3,4.78,4.78,0,0,0,1.51-.82,4.34,4.34,0,0,0,1.05-1.22,3.61,3.61,0,0,0,.47-1.51l.47-6.36a3.33,3.33,0,0,0,0-.55ZM68.68,45a3.79,3.79,0,0,1,.55-1.78,5.11,5.11,0,0,1,1.34-1.45,6.46,6.46,0,0,1,1.93-1,7.62,7.62,0,0,1,2.32-.36h28.35a7.62,7.62,0,0,1,2.32.36,6.34,6.34,0,0,1,1.93,1,4.84,4.84,0,0,1,1.34,1.45,3.68,3.68,0,0,1,.55,1.78l2.15,46.37a2.19,2.19,0,0,1-.19,1,2.62,2.62,0,0,1-.63.85,3.22,3.22,0,0,1-1,.57,3.66,3.66,0,0,1-1.21.21H69.54a3.66,3.66,0,0,1-1.21-.21,3.11,3.11,0,0,1-1-.57,2.48,2.48,0,0,1-.63-.85,2.07,2.07,0,0,1-.2-1Z"/>
  <path d="M107.48,45a2.57,2.57,0,0,0-.38-1.23,3.29,3.29,0,0,0-.93-1,4.45,4.45,0,0,0-1.34-.68,5.34,5.34,0,0,0-1.62-.25H74.78a5.34,5.34,0,0,0-1.62.25,4.57,4.57,0,0,0-1.34.68,3.29,3.29,0,0,0-.93,1A2.57,2.57,0,0,0,70.51,45l-.15,3.57a6.82,6.82,0,0,1,.79-.31A8.15,8.15,0,0,1,72,48a6.21,6.21,0,0,1,.88-.14,7,7,0,0,1,.92,0h30.4a7,7,0,0,1,.92,0A6.45,6.45,0,0,1,106,48a7.38,7.38,0,0,1,.84.22,6.82,6.82,0,0,1,.79.31Z" fill="#ccc"/>
  <rect x="94.84" y="44.14" width="6.05" height="1.51" rx="0.76" ry="0.76" fill="#e17000"/>
  <g style="isolation: isolate">
    <g clip-path="url(#clip-path)">
      <g>
        <path d="M89,63.82a1.36,1.36,0,1,0,1.55,1.34A1.45,1.45,0,0,0,89,63.82"/>
        <path d="M89,52.59a14.88,14.88,0,0,0-12.38,6.2.76.76,0,0,0,.34,1.1,1.12,1.12,0,0,0,.47.11,1,1,0,0,0,.81-.4,13.42,13.42,0,0,1,21.52,0,1,1,0,0,0,.81.4,1.07,1.07,0,0,0,.46-.11.75.75,0,0,0,.35-1.1A14.88,14.88,0,0,0,89,52.59"/>
        <path d="M89,56.35a10.37,10.37,0,0,0-8.62,4.32.75.75,0,0,0,.35,1.1,1.12,1.12,0,0,0,.47.11,1,1,0,0,0,.8-.41,8.75,8.75,0,0,1,14,0,.94.94,0,0,0,.81.41,1,1,0,0,0,.46-.11.74.74,0,0,0,.34-1.1A10.34,10.34,0,0,0,89,56.35"/>
        <path d="M89,60.11a5.82,5.82,0,0,0-4.86,2.45.76.76,0,0,0,.36,1.1,1,1,0,0,0,.46.1.93.93,0,0,0,.8-.4,4,4,0,0,1,6.48,0,1,1,0,0,0,.81.41,1.11,1.11,0,0,0,.46-.11.75.75,0,0,0,.34-1.1A5.8,5.8,0,0,0,89,60.11"/>
        <path d="M100.57,70.33a1,1,0,0,0-.81.4,13.42,13.42,0,0,1-21.52,0,1,1,0,0,0-.81-.4,1,1,0,0,0-.47.11.76.76,0,0,0-.34,1.1,15.46,15.46,0,0,0,24.76,0,.75.75,0,0,0-.35-1.1,1,1,0,0,0-.46-.11"/>
        <path d="M96.81,68.45a1,1,0,0,0-.81.4,8.74,8.74,0,0,1-14,0,1,1,0,0,0-.81-.4,1.09,1.09,0,0,0-.46.1.76.76,0,0,0-.35,1.1,10.74,10.74,0,0,0,17.23,0,.75.75,0,0,0-.34-1.1,1.06,1.06,0,0,0-.46-.1"/>
        <path d="M93,66.56a1,1,0,0,0-.8.41,4,4,0,0,1-6.48,0,.94.94,0,0,0-.8-.41,1,1,0,0,0-.46.11.76.76,0,0,0-.36,1.1,6.05,6.05,0,0,0,9.71,0,.75.75,0,0,0-.34-1.1,1.12,1.12,0,0,0-.47-.11"/>
      </g>
    </g>
  </g>
  <path d="M108.46,96H69.54a5.54,5.54,0,0,1-1.9-.33,6.16,6.16,0,0,1-.82-.39c.09,1,.16,2.81.16,2.81a1.6,1.6,0,0,0,.22.69,2.14,2.14,0,0,0,.56.65,3.06,3.06,0,0,0,.91.49,3.56,3.56,0,0,0,1.18.19h38.3a3.56,3.56,0,0,0,1.18-.19,3.06,3.06,0,0,0,.91-.49,2.14,2.14,0,0,0,.56-.65,1.6,1.6,0,0,0,.22-.69s.07-1.82.16-2.81a5.62,5.62,0,0,1-.82.39A5.54,5.54,0,0,1,108.46,96Z" fill="#b4b4b4"/>
  <path d="M88,97H90a.56.56,0,0,1,.56.56v6.85A1.6,1.6,0,0,1,89,106h0a1.6,1.6,0,0,1-1.6-1.6V97.56A.56.56,0,0,1,88,97Z" transform="translate(178 203) rotate(180)"/>
</svg>