<svg xmlns="http://www.w3.org/2000/svg" viewBox="0 0 140 140"><defs><style>.cls-1{fill:#fff;}.cls-2{fill:#e17000;}</style></defs><title>DigiD inloggen flow v4</title><g id="content"><rect width="140" height="140" rx="19.75" ry="19.75"/><path class="cls-1" d="M15.56,106.92V73.84H25c11.2,0,17.4,5.6,17.4,15.58,0,12-6.76,17.5-17.6,17.5Zm6-5h3.48c6.66,0,11-3.58,11-12.2,0-7.17-4.34-10.9-11.45-10.9h-3Z"/><path class="cls-1" d="M50.61,71.62A3.1,3.1,0,0,1,54,74.9a3.14,3.14,0,0,1-3.38,3.23,3,3,0,0,1-3.33-3.23A3.13,3.13,0,0,1,50.61,71.62Zm2.87,35.3H47.79V82.11l5.69-.25Z"/><path class="cls-1" d="M67.3,102.08h6c5.35,0,7.62,2.12,7.62,6.15,0,4.75-3.94,8.58-13,8.58-7.11,0-10.39-2.52-10.39-6.41A5.72,5.72,0,0,1,61.25,105v-.16a3.73,3.73,0,0,1-2-3.32,4,4,0,0,1,2.78-3.74v-.15c-2.27-1.26-3.58-3.38-3.58-6.6,0-6.05,4.08-9.33,10.39-9.33a13.88,13.88,0,0,1,3.83.5h8.07V86H76.93v.15a6,6,0,0,1,2,4.69c0,5.5-3.73,8.38-10.59,8.38a12,12,0,0,1-3.13-.41,1.87,1.87,0,0,0-1.05,1.57C64.13,101.48,65,102.08,67.3,102.08Zm1.06,10.49c5.45,0,7.41-1.36,7.41-3.33,0-1.46-.9-2.27-3.38-2.32l-8.26-.25a2.89,2.89,0,0,0-1.37,2.62C62.76,111.26,64.48,112.57,68.36,112.57Zm5.25-22.19c0-3-1.67-4.64-4.85-4.64-2.82,0-4.84,1.62-4.84,5s1.82,4.59,4.74,4.59C71.79,95.32,73.61,93.86,73.61,90.38Z"/><path class="cls-2" d="M87.47,71.62a3.1,3.1,0,0,1,3.38,3.28,3.14,3.14,0,0,1-3.38,3.23,3,3,0,0,1-3.32-3.23A3.13,3.13,0,0,1,87.47,71.62Zm2.88,35.3h-5.7V82.11l5.7-.25Z"/><path class="cls-2" d="M97.56,106.92V73.84H107c11.2,0,17.4,5.6,17.4,15.58,0,12-6.76,17.5-17.6,17.5Zm6-5h3.48c6.66,0,11-3.58,11-12.2,0-7.17-4.34-10.9-11.45-10.9h-3Z"/></g></svg>