<svg id="foreground" xmlns="http://www.w3.org/2000/svg" width="120" height="160" viewBox="0 0 120 160">
  <title>digid_menu_digid_app_phone</title>
  <path d="M72.6,118.09H46.79c2.73-42.87-13.32-34.76-13.32-34.76h0a1.26,1.26,0,0,1-1.84-1.46A115.85,115.85,0,0,0,34.39,69.4L21.8,58.93a7.53,7.53,0,0,1-.91,3.72C19.06,66.93,15.11,76.77,10,88c-2.48,5.46.5,14.83,1.81,25.27a19.21,19.21,0,0,1-3.67,13.9l-27.89,37.44,57.15.18-3.65,4.84,19.07-24.74a11.5,11.5,0,0,1,5.2-3.75C70.41,136.61,79.29,124,79.29,109.2Z" fill="#fed6c3" stroke="#000" stroke-miterlimit="10" stroke-width="2"/>
  <rect x="85.64" y="44.21" width="14.27" height="31.58" rx="7.13" ry="7.13" transform="matrix(0.52, 0.85, -0.85, 0.52, 95.6, -50.45)" fill="#fed6c3" stroke="#000" stroke-miterlimit="10" stroke-width="2"/>
  <rect x="27.83" y="63.57" width="46.52" height="55.43" fill="#fed6c3"/>
  <rect x="31" y="31.35" width="58.57" height="87.86" fill="#fff"/>
  <path d="M89.57,32.19H31V22.57a3.77,3.77,0,0,1,3.76-3.77H85.81a3.76,3.76,0,0,1,3.76,3.77Z" fill="#e17000"/>
  <line x1="57.06" y1="26.33" x2="63.51" y2="26.33" fill="none" stroke="#000" stroke-linecap="round" stroke-miterlimit="10" stroke-width="2"/>
  <circle cx="52.96" cy="26.33" r="1.13"/>
  <path d="M85.81,131.76H34.76A3.76,3.76,0,0,1,31,128v-9.63H89.57V128A3.76,3.76,0,0,1,85.81,131.76Z" fill="#e17000"/>
  <path d="M84.55,20.8a3,3,0,0,1,3,3V126.74a3,3,0,0,1-3,3H36a3,3,0,0,1-3-3V23.82a3,3,0,0,1,3-3H84.55m0-2H36a5,5,0,0,0-5,5V126.74a5,5,0,0,0,5,5H84.55a5,5,0,0,0,5-5V23.82a5,5,0,0,0-5-5Z" fill="#fff"/>
  <path d="M84.55,18.8a5,5,0,0,1,5,5V126.74a5,5,0,0,1-5,5H36a5,5,0,0,1-5-5V23.82a5,5,0,0,1,5-5H84.55m0-2H36a7,7,0,0,0-7,7V126.74a7,7,0,0,0,7,7H84.55a7,7,0,0,0,7-7V23.82a7,7,0,0,0-7-7Z"/>
  <path d="M26.46,87.07a163.77,163.77,0,0,0,7.37-18.13c.6-1.84,4-13.33-1.9-19.69S21,48.78,21,48.78l.76,10.15" fill="#fed6c3" stroke="#000" stroke-linecap="round" stroke-miterlimit="10" stroke-width="2"/>
  <path d="M21.8,58.93a7.53,7.53,0,0,1-.91,3.72" fill="#fed6c3" stroke="#000" stroke-linecap="round" stroke-miterlimit="10" stroke-width="2"/>
  <g>
    <g>
      <rect x="39.28" y="54.28" width="18.65" height="18.35" rx="2.54" ry="2.54" transform="translate(-14.9 111.98) rotate(-89.94)"/>
      <g>
        <path d="M41.47,68.36V64h1.24C44.18,64,45,64.7,45,66a2.08,2.08,0,0,1-2.31,2.33Zm.79-.66h.46c.87,0,1.44-.48,1.44-1.63a1.34,1.34,0,0,0-1.5-1.45h-.4Z" fill="#fff"/>
        <path d="M46.06,63.66a.41.41,0,0,1,.45.44.42.42,0,0,1-.45.43.4.4,0,0,1-.43-.43A.41.41,0,0,1,46.06,63.66Zm.38,4.71h-.75v-3.3l.75,0Z" fill="#fff"/>
        <path d="M48.25,67.72H49c.7,0,1,.29,1,.82s-.51,1.15-1.7,1.14c-.93,0-1.36-.33-1.36-.85a.76.76,0,0,1,.49-.72v0a.5.5,0,0,1-.25-.44.53.53,0,0,1,.36-.5v0a.93.93,0,0,1-.47-.88A1.2,1.2,0,0,1,48.46,65a1.73,1.73,0,0,1,.5.07h1v.5h-.5v0a.81.81,0,0,1,.26.63c0,.73-.49,1.11-1.39,1.11a1.77,1.77,0,0,1-.41,0,.22.22,0,0,0-.14.2C47.83,67.64,47.94,67.72,48.25,67.72Zm.13,1.4c.72,0,1-.18,1-.44s-.12-.31-.45-.31l-1.08,0a.39.39,0,0,0-.18.35C47.65,68.94,47.88,69.12,48.38,69.12Zm.7-3a.56.56,0,0,0-.64-.61.58.58,0,0,0-.63.66.54.54,0,0,0,.62.61C48.84,66.82,49.07,66.63,49.08,66.16Z" fill="#fff"/>
        <path d="M50.9,63.67a.41.41,0,0,1,.44.43.41.41,0,0,1-.45.43.39.39,0,0,1-.43-.43A.41.41,0,0,1,50.9,63.67Zm.37,4.7h-.75V65.06l.75,0Z" fill="#f98a3c"/>
        <path d="M52.21,68.37V64h1.24c1.47,0,2.28.74,2.28,2.07a2.08,2.08,0,0,1-2.31,2.33Zm.8-.66h.45c.87,0,1.44-.48,1.44-1.63a1.33,1.33,0,0,0-1.49-1.45H53Z" fill="#f98a3c"/>
      </g>
    </g>
    <rect x="62.64" y="54.28" width="18.65" height="18.35" rx="2.54" ry="2.54" transform="translate(8.44 135.34) rotate(-89.94)" fill="#e6e6e6"/>
    <g>
      <rect x="62.64" y="77.94" width="18.65" height="18.35" rx="2.54" ry="2.54" transform="translate(-15.23 158.99) rotate(-89.94)" fill="#e6e6e6"/>
      <rect x="39.28" y="77.94" width="18.65" height="18.35" rx="2.54" ry="2.54" transform="translate(-38.56 135.62) rotate(-89.94)" fill="#e6e6e6"/>
    </g>
  </g>
  <path d="M90.38,87.22l-2.63.33a6.64,6.64,0,0,0-5.5,7.53,6.55,6.55,0,0,0,7.11,6l2.62-.32a6.67,6.67,0,0,0,5.51-7.54A6.56,6.56,0,0,0,90.38,87.22Z" fill="#fed6c3" stroke="#000" stroke-miterlimit="10" stroke-width="2"/>
  <path d="M90.38,100.77l-1.95.25a6.65,6.65,0,0,0-5.51,7.53h0a6.56,6.56,0,0,0,7.11,6l2-.24a6.65,6.65,0,0,0,5.51-7.54A6.56,6.56,0,0,0,90.38,100.77Z" fill="#fed6c3" stroke="#000" stroke-miterlimit="10" stroke-width="2"/>
  <path d="M90.33,73.66l-3.58.44a6.67,6.67,0,0,0-5.51,7.54h0a6.56,6.56,0,0,0,7.11,6l3.58-.45a6.64,6.64,0,0,0,5.51-7.53A6.55,6.55,0,0,0,90.33,73.66Z" fill="#fed6c3" stroke="#000" stroke-miterlimit="10" stroke-width="2"/>
</svg>