<?xml version="1.0" encoding="UTF-8"?>
<svg width="16px" height="16px" viewBox="0 0 16 16" version="1.1" xmlns="http://www.w3.org/2000/svg" xmlns:xlink="http://www.w3.org/1999/xlink">
    <!-- Generator: Sketch 58 (84663) - https://sketch.com -->
    <title>error-darkmode</title>
    <desc>Created with Sketch.</desc>
    <g id="error-darkmode" stroke="none" stroke-width="1" fill="none" fill-rule="evenodd">
        <path d="M15.5502609,1.83199997 C15.8956522,3.90539128 15.8956522,5.9777391 15.8956522,8.05217389 C15.8956522,8.74330432 15.8956522,12.1989565 15.5502609,14.2723478 C15.4306087,14.9892174 14.8852174,15.5349565 14.168,15.6542608 C12.0946087,16 8.63895652,16 7.94817391,16 C7.25669565,16 3.8013913,16 1.728,15.6542608 C1.01078261,15.5349565 0.465043478,14.9892174 0.34573913,14.2723478 C0,12.1989565 0,8.74330432 0,8.05217389 C0,7.36104345 0,3.90539128 0.34573913,1.83199997 C0.465043478,1.11513041 1.01078261,0.569391278 1.728,0.45008693 C3.8013913,0.1043478 7.25669565,0.1043478 7.94817391,0.1043478 C8.63895652,0.1043478 12.0946087,0.1043478 14.168,0.45008693 C14.8852174,0.569391278 15.4306087,1.11513041 15.5502609,1.83199997 Z" id="path-1-path" fill="#D52B1E" fill-rule="nonzero" transform="translate(7.947826, 8.052174) scale(-1, 1) rotate(-180.000000) translate(-7.947826, -8.052174) "></path>
        <path d="M7.97500002,12 C7.51344776,12 7.13928572,11.6258379 7.13928572,11.1642857 L7.13928572,7.50281585 C7.13928572,7.04126358 7.51344776,6.66710154 7.97500002,6.66710154 C8.43655229,6.66710154 8.81071433,7.04126358 8.81071433,7.50281585 L8.81071433,11.1642857 C8.81071433,11.6258379 8.43655229,12 7.97500002,12 Z M7.98137931,5.5528158 C7.35693358,5.5528158 7,5.20365437 7,4.56583721 C7,4.02407148 7.33136072,3.60281576 7.96862074,3.60281576 C8.59309432,3.60281576 8.95000005,3.93974791 8.95000005,4.56583721 C8.95000005,5.11944222 8.61863933,5.5528158 7.98137931,5.5528158 Z" id="Combined-Shape" fill="#FFFFFF" fill-rule="nonzero" transform="translate(7.975000, 7.801408) rotate(-360.000000) translate(-7.975000, -7.801408) "></path>
    </g>
</svg>