<?xml version="1.0" encoding="UTF-8"?>
<svg width="16px" height="16px" viewBox="0 0 16 16" version="1.1" xmlns="http://www.w3.org/2000/svg" xmlns:xlink="http://www.w3.org/1999/xlink">
    <!-- Generator: Sketch 51.2 (57519) - http://www.bohemiancoding.com/sketch -->
    <title>icon/error/full-yellow</title>
    <desc>Created with Sketch.</desc>
    <defs>
        <path d="M15.5502609,1.72765217 C15.8956522,3.80104348 15.8956522,5.8733913 15.8956522,7.94782609 C15.8956522,8.63895652 15.8956522,12.0946087 15.5502609,14.168 C15.4306087,14.8848696 14.8852174,15.4306087 14.168,15.549913 C12.0946087,15.8956522 8.63895652,15.8956522 7.94817391,15.8956522 C7.25669565,15.8956522 3.8013913,15.8956522 1.728,15.549913 C1.01078261,15.4306087 0.465043478,14.8848696 0.34573913,14.168 C0,12.0946087 0,8.63895652 0,7.94782609 C0,7.25669565 0,3.80104348 0.34573913,1.72765217 C0.465043478,1.01078261 1.01078261,0.465043478 1.728,0.34573913 C3.8013913,0 7.25669565,0 7.94817391,0 C8.63895652,0 12.0946087,0 14.168,0.34573913 C14.8852174,0.465043478 15.4306087,1.01078261 15.5502609,1.72765217 Z M7.97500002,12.2971843 C8.43655229,12.2971843 8.81071433,11.9230223 8.81071433,11.46147 L8.81071433,7.80000019 C8.81071433,7.33844792 8.43655229,6.96428588 7.97500002,6.96428588 C7.51344776,6.96428588 7.13928572,7.33844792 7.13928572,7.80000019 L7.13928572,11.46147 C7.13928572,11.9230223 7.51344776,12.2971843 7.97500002,12.2971843 Z M7.98137931,5.85000014 C8.61863933,5.85000014 8.95000005,5.41662656 8.95000005,4.86302155 C8.95000005,4.23693225 8.59309432,3.9000001 7.96862074,3.9000001 C7.33136072,3.9000001 7,4.32125582 7,4.86302155 C7,5.50083871 7.35693358,5.85000014 7.98137931,5.85000014 Z" id="path-1"></path>
    </defs>
    <g id="icon/error/full-yellow" stroke="none" stroke-width="1" fill="none" fill-rule="evenodd">
        <mask id="mask-2" fill="white">
            <use xlink:href="#path-1"></use>
        </mask>
        <use id="Combined-Shape" fill="#e17000" transform="translate(7.947826, 7.947826) scale(1, -1) translate(-7.947826, -7.947826) " xlink:href="#path-1"></use>
        <path d="M7.97500002,11.9956521 C7.51344776,11.9956521 7.13928572,11.62149 7.13928572,11.1599378 L7.13928572,7.49846795 C7.13928572,7.03691568 7.51344776,6.66275364 7.97500002,6.66275364 C8.43655229,6.66275364 8.81071433,7.03691568 8.81071433,7.49846795 L8.81071433,11.1599378 C8.81071433,11.62149 8.43655229,11.9956521 7.97500002,11.9956521 Z M7.98137931,5.5484679 C7.35693358,5.5484679 7,5.19930647 7,4.56148931 C7,4.01972358 7.33136072,3.59846786 7.96862074,3.59846786 C8.59309432,3.59846786 8.95000005,3.93540001 8.95000005,4.56148931 C8.95000005,5.11509432 8.61863933,5.5484679 7.98137931,5.5484679 Z" id="Combined-Shape" fill="#FFFFFF" transform="translate(7.975000, 7.797060) scale(1, -1) translate(-7.975000, -7.797060) "></path>
    </g>
</svg>