<?xml version="1.0" encoding="UTF-8"?>
<svg width="16px" height="16px" viewBox="0 0 16 16" version="1.1" xmlns="http://www.w3.org/2000/svg" xmlns:xlink="http://www.w3.org/1999/xlink">
    <!-- Generator: Sketch 58 (84663) - https://sketch.com -->
    <title>info-darkmode</title>
    <desc>Created with Sketch.</desc>
    <g id="info-darkmode" stroke="none" stroke-width="1" fill="none" fill-rule="evenodd">
        <path d="M15.5502609,1.72765217 C15.8956522,3.80104348 15.8956522,5.8733913 15.8956522,7.94782609 C15.8956522,8.63895652 15.8956522,12.0946087 15.5502609,14.168 C15.4306087,14.8848696 14.8852174,15.4306087 14.168,15.549913 C12.0946087,15.8956522 8.63895652,15.8956522 7.94817391,15.8956522 C7.25669565,15.8956522 3.8013913,15.8956522 1.728,15.549913 C1.01078261,15.4306087 0.465043478,14.8848696 0.34573913,14.168 C-1.42108547e-14,12.0946087 -1.42108547e-14,8.63895652 -1.42108547e-14,7.94782609 C-1.42108547e-14,7.25669565 -1.42108547e-14,3.80104348 0.34573913,1.72765217 C0.465043478,1.01078261 1.01078261,0.465043478 1.728,0.34573913 C3.8013913,-1.42108547e-14 7.25669565,-1.42108547e-14 7.94817391,-1.42108547e-14 C8.63895652,-1.42108547e-14 12.0946087,-1.42108547e-14 14.168,0.34573913 C14.8852174,0.465043478 15.4306087,1.01078261 15.5502609,1.72765217 Z" id="path-1-path" fill="#A95400" fill-rule="nonzero"></path>
        <path d="M7.97500002,12.3971842 C7.51344776,12.3971842 7.13928572,12.0230221 7.13928572,11.5614699 L7.13928572,7.90000009 C7.13928572,7.43844782 7.51344776,7.06428578 7.97500002,7.06428578 C8.43655229,7.06428578 8.81071433,7.43844782 8.81071433,7.90000009 L8.81071433,11.5614699 C8.81071433,12.0230221 8.43655229,12.3971842 7.97500002,12.3971842 Z M7.98137931,5.95000004 C7.35693358,5.95000004 7,5.60083861 7,4.96302145 C7,4.42125572 7.33136072,4 7.96862074,4 C8.59309432,4 8.95000005,4.33693215 8.95000005,4.96302145 C8.95000005,5.51662646 8.61863933,5.95000004 7.98137931,5.95000004 Z" id="Combined-Shape" fill="#FFFFFF" fill-rule="nonzero" transform="translate(7.975000, 8.198592) scale(-1, 1) rotate(-180.000000) translate(-7.975000, -8.198592) "></path>
    </g>
</svg>