<?xml version="1.0" encoding="UTF-8"?>
<svg width="44px" height="77px" viewBox="0 0 44 77" version="1.1" xmlns="http://www.w3.org/2000/svg" xmlns:xlink="http://www.w3.org/1999/xlink">
    <g id="rijks-logo/big" stroke="none" stroke-width="1" fill="none" fill-rule="evenodd">
        <g id="rijks-logo">
            <polygon id="Fill-4" fill="#154273" points="0 77 44 77 44 0 0 0"></polygon>
            <path d="M24.232,47.433 C24.232,47.624 24.35,47.904 24.605,47.823 L24.627,47.834 C24.588,48.047 24.208,48.242 24.034,47.99 C23.88,48.316 23.916,48.62 24.249,48.799 L24.249,48.848 C24.051,48.993 23.742,48.96 23.598,48.683 C23.325,48.888 23.364,49.326 23.53,49.476 C23.53,49.478 22.775,49.924 22.089,49.605 C21.634,49.387 21.264,49.108 20.677,49.154 C20.759,48.332 21.17,48.115 21.926,47.997 C22.53,47.899 22.607,47.622 22.521,47.412 C22.315,47.357 21.94,47.546 21.94,47.546 C21.872,47.433 21.97,47.315 21.97,47.315 L21.914,47.118 C22.336,47.118 22.411,47.025 22.411,47.025 C22.486,46.585 22.038,46.538 21.697,46.775 C21.539,46.635 21.564,46.448 21.564,46.448 L21.487,46.32 C21.487,46.216 21.988,45.934 22.117,45.901 C22.15,45.756 22.332,45.554 22.863,45.602 C22.927,45.461 22.823,44.947 22.758,44.808 L22.814,44.772 C23,44.89 23.185,45.323 23.311,45.332 L23.938,45.035 L24.051,45.72 C24.131,45.817 24.592,45.722 24.794,45.808 L24.797,45.875 C24.647,45.9 24.165,46.108 24.086,46.241 C24.362,46.655 24.232,47.265 24.232,47.433 Z M18.896,47.773 L18.648,47.745 L18.637,47.755 C18.672,47.834 18.815,48.071 19.026,48.071 C19.121,48.071 19.261,48.016 19.3,47.951 C19.3,47.951 20.127,48.22 20.535,48.333 C20.377,48.544 20.277,48.798 20.258,49.074 C19.928,48.872 18.61,48.165 18.61,48.165 L18.201,48.723 C18.134,48.816 17.807,48.578 17.875,48.484 L18.187,48.058 C18.084,47.948 17.835,48.017 17.767,48.037 L17.758,48.018 C17.797,47.934 17.952,47.675 18.341,47.792 C18.342,47.555 17.989,47.631 17.897,47.656 L17.892,47.644 C17.987,47.541 18.275,47.309 18.596,47.499 L18.735,47.307 L18.453,47.009 L18.63,46.766 L18.828,47.033 L20.35,44.949 C20.387,44.898 20.689,44.81 20.802,44.786 C20.815,44.903 20.827,45.215 20.791,45.266 L19.295,47.369 L19.61,47.472 L19.436,47.717 L19.063,47.544 L18.896,47.773 Z M30.248,58.738 L30.257,58.711 C30.06,58.582 29.906,58.404 29.906,58.208 C29.906,57.858 30.577,57.399 30.898,57.399 C31.089,57.399 31.226,57.627 31.594,57.627 C31.784,57.627 32.006,57.55 32.191,57.319 L32.174,57.292 C32.022,57.316 31.607,57.419 31.413,56.669 C31.213,55.889 31.145,55.322 31.491,55.024 C31.784,54.772 33.072,54.283 33.781,54.012 L33.781,53.963 C33.586,53.909 33.394,53.79 33.369,53.548 C33.351,53.398 33.382,53.193 33.553,53.092 C33.202,52.713 32.508,52.449 32.142,52.449 C30.739,52.449 29.549,54.35 28.98,54.35 C28.908,54.35 28.816,54.323 28.733,54.201 L28.694,54.216 C28.694,54.79 28.998,54.841 29.16,54.841 C29.251,54.843 29.35,54.814 29.421,54.774 L29.448,54.792 L29.444,54.912 C29.444,55.588 30.151,56.327 30.151,56.327 C29.831,56.659 29.032,57.218 28.809,56.921 C28.714,56.8 28.295,56.047 27.737,56.647 L27.768,56.694 C28.083,56.694 28.328,56.909 28.244,57.234 C27.791,56.873 27.165,56.931 27.165,57.766 L27.214,57.782 C27.513,57.353 27.985,57.644 28.053,57.705 C27.737,57.753 27.188,58.125 27.67,58.785 L27.712,58.785 C27.762,58.351 28.026,58.278 28.241,58.278 C28.684,58.278 29.007,58.685 29.346,58.252 C29.468,58.817 30.096,58.764 30.248,58.738 Z M14.748,58.252 C15.086,58.685 15.409,58.278 15.853,58.278 C16.068,58.278 16.332,58.351 16.382,58.785 L16.424,58.785 C16.907,58.125 16.357,57.753 16.04,57.705 C16.109,57.644 16.581,57.353 16.88,57.782 L16.929,57.766 C16.929,56.931 16.303,56.873 15.85,57.234 C15.765,56.909 16.01,56.694 16.326,56.694 L16.358,56.647 C15.798,56.047 15.38,56.8 15.285,56.921 C15.061,57.218 14.263,56.659 13.944,56.327 C13.944,56.327 14.65,55.588 14.65,54.912 L14.645,54.792 L14.673,54.774 C14.744,54.814 14.843,54.843 14.934,54.841 C15.095,54.841 15.4,54.79 15.4,54.216 L15.361,54.201 C15.277,54.323 15.185,54.35 15.114,54.35 C14.544,54.35 13.354,52.449 11.952,52.449 C11.586,52.449 10.892,52.713 10.541,53.092 C10.711,53.193 10.743,53.398 10.726,53.548 C10.7,53.79 10.509,53.909 10.313,53.963 L10.313,54.012 C11.021,54.283 12.31,54.772 12.603,55.024 C12.949,55.322 12.881,55.889 12.681,56.669 C12.487,57.419 12.072,57.316 11.92,57.292 L11.904,57.319 C12.087,57.55 12.309,57.627 12.5,57.627 C12.867,57.627 13.005,57.399 13.195,57.399 C13.516,57.399 14.188,57.858 14.188,58.208 C14.188,58.404 14.034,58.582 13.837,58.711 L13.845,58.738 C13.999,58.764 14.627,58.817 14.748,58.252 Z M21.367,46.95 C21.611,46.888 21.88,46.917 21.909,46.926 L21.902,47.004 C21.392,47.069 21.369,47.303 21.044,47.303 C20.829,47.303 20.597,47.088 20.685,46.769 L20.737,46.766 C20.77,46.903 20.968,47.052 21.367,46.95 Z M22.644,46.094 C22.298,46.073 22.076,46.15 22.087,46.261 C22.255,46.438 22.479,46.418 22.644,46.094 Z M19.728,55.108 C19.535,55.343 19.366,55.118 19.113,55.118 C18.875,55.118 18.835,55.317 18.829,55.397 L18.81,55.401 C18.54,55.033 18.842,54.832 19.018,54.805 C18.992,54.78 18.727,54.601 18.558,54.846 L18.528,54.835 C18.52,54.378 18.883,54.345 19.122,54.546 C19.165,54.373 19.053,54.257 18.86,54.247 L18.842,54.221 L19.081,54.094 C19.336,54.094 19.368,54.416 19.534,54.416 C19.784,54.416 20.136,54.08 20.171,54.044 C20.163,54.026 19.925,53.38 19.972,52.992 L19.955,52.981 C19.835,53.048 19.528,53.046 19.528,52.669 L19.554,52.661 C19.688,52.846 19.906,52.638 20.014,52.515 C20.132,52.385 20.759,51.471 21.597,51.471 C21.781,51.472 22.019,51.572 22.211,51.705 C21.921,52.057 22.208,52.394 22.422,52.351 L22.428,52.378 C21.321,52.794 20.826,52.961 20.826,53.888 C20.826,54.372 20.992,54.64 21.276,54.577 L21.288,54.597 C21.185,54.719 21.067,54.76 20.968,54.76 C20.738,54.76 20.697,54.634 20.573,54.634 C20.446,54.634 20.034,54.877 20.034,55.08 C20.034,55.156 20.082,55.26 20.228,55.356 L20.224,55.371 C20.131,55.388 19.804,55.417 19.728,55.108 Z M18.233,51.171 L17.8,51.059 L17.764,51.112 L17.262,50.892 L17.711,50.889 L17.733,50.841 C17.529,50.64 17.35,50.465 17.35,50.465 C17.35,50.465 17.554,50.541 17.845,50.65 L17.875,50.615 C17.735,50.408 17.545,50.131 17.545,50.131 L18.031,50.456 L18.067,50.43 C17.959,50.164 17.837,49.861 17.837,49.861 L18.28,50.28 L18.318,50.26 C18.275,50.061 18.195,49.692 18.195,49.692 L18.52,50.167 L18.565,50.154 C18.567,50.061 18.575,49.634 18.575,49.634 C18.575,49.634 18.712,49.949 18.782,50.11 L18.838,50.103 L19.005,49.701 L19.024,50.242 L18.952,50.255 L18.861,50.907 C19.507,50.756 20.311,49.651 20.928,49.651 C21.663,49.651 21.93,50.512 23.288,50.076 C23.63,50.583 23.75,51.024 23.882,51.634 C24.406,52.127 25.142,51.963 25.142,51.44 C25.142,50.737 24.376,50.603 24.376,49.87 C24.376,49.542 24.605,49.071 25.232,49.071 C25.563,49.071 26.048,49.213 26.328,49.213 C26.659,49.213 26.73,48.973 26.767,48.874 L26.879,48.882 C26.868,48.951 26.918,49.046 26.918,49.204 C26.918,49.668 26.242,49.729 26.158,49.671 L26.124,49.704 C26.225,49.786 26.202,50.062 26.082,50.238 L26.044,50.236 C25.972,49.903 25.582,49.493 25.238,49.493 C25.112,49.493 24.86,49.567 24.86,49.858 C24.86,50.276 25.697,50.655 25.697,51.521 C25.697,52.42 24.806,52.635 23.91,52.412 C23.941,53.263 25.212,53.769 25.242,53.16 L25.279,53.161 C25.468,53.421 25.382,53.62 25.142,53.72 C25.363,53.82 25.403,54.267 25.468,54.534 C25.566,54.934 25.99,54.712 26.011,54.7 L26.032,54.725 C25.872,55.141 25.445,54.984 25.445,54.984 C25.221,55.141 25.491,55.282 25.694,55.343 L25.699,55.382 C25.549,55.438 25.229,55.538 25.074,55.27 C24.959,55.547 24.723,55.539 24.631,55.539 C24.467,55.539 24.358,55.707 24.397,55.931 L24.372,55.944 C23.981,55.686 24.205,55.382 24.363,55.306 C24.335,55.289 24.067,55.177 23.952,55.492 L23.92,55.495 C23.75,55.041 24.121,54.909 24.389,55.024 C24.371,54.96 24.231,54.738 23.878,54.809 L23.861,54.784 C23.919,54.646 24.094,54.441 24.414,54.648 C24.577,54.75 24.86,54.601 24.885,54.588 C24.316,53.456 23.211,54.404 22.964,53.517 L22.922,53.531 C22.862,53.72 22.38,53.733 22.292,53.361 L22.315,53.347 C22.385,53.418 22.537,53.482 22.736,53.194 C22.868,53.004 22.887,52.75 22.887,52.577 C22.887,51.888 22.199,50.733 21.126,50.733 C20.448,50.733 19.719,50.997 19.178,51.391 L19.682,51.507 C19.634,52.016 19.144,52.313 18.694,52.188 L18.772,51.605 C18.694,51.629 18.497,51.699 18.391,51.85 L18.364,51.845 C18.272,51.515 18.545,51.348 18.63,51.305 L18.621,51.292 C18.377,51.283 18.239,51.463 18.201,51.524 L18.181,51.523 C18.161,51.463 18.118,51.292 18.233,51.171 Z M22.047,61.859 C26.324,61.859 30.667,62.083 31.235,62.727 L31.299,62.688 L31.3,60.421 C31.3,59.76 26.819,59.375 22.047,59.375 C17.275,59.375 12.794,59.76 12.794,60.421 L12.795,62.688 L12.86,62.727 C13.427,62.083 17.77,61.859 22.047,61.859 Z M29.025,62.871 L29.025,63.854 C29.025,65.525 31.777,63.958 34.433,63.789 C36.638,63.644 37.254,64.207 37.254,64.207 L36.849,61.978 C36.828,61.857 36.351,61.514 34.83,61.514 C33.001,61.514 32.084,61.863 31.749,61.981 L31.749,63.152 C31.749,63.419 31.615,63.549 31.412,63.631 C31.412,63.533 31.107,62.871 29.025,62.871 Z M12.682,63.631 C12.479,63.549 12.345,63.419 12.345,63.152 L12.345,61.981 C12.01,61.863 11.093,61.514 9.263,61.514 C7.743,61.514 7.266,61.857 7.244,61.978 L6.84,64.207 C6.84,64.207 7.456,63.644 9.661,63.789 C12.317,63.958 15.069,65.525 15.069,63.854 L15.069,62.871 C12.987,62.871 12.682,63.533 12.682,63.631 Z M17.746,44.316 C17.108,44.456 16.65,44.588 16.444,44.651 C16.455,44.368 16.562,44.107 16.813,44.049 L16.824,43.978 C16.255,43.6 15.95,44.324 15.941,44.347 C15.739,44.332 15.432,44.395 15.432,44.668 C15.432,45.483 13.568,45.936 13.136,46.002 C13.897,46.296 14.214,47.255 14.214,47.255 C14.767,46.703 15.414,46.215 15.556,46.215 C15.703,46.215 15.758,46.4 15.77,46.509 L15.83,46.525 C16.12,46.094 15.981,45.996 15.958,45.869 C15.939,45.769 15.968,45.391 16.39,45.435 L16.39,50.875 L16.173,50.918 C16.073,50.936 15.278,50.259 14.368,49.63 C13.457,49 12.968,49.377 11.929,49.939 C10.57,50.674 9.195,50.007 9.195,50.007 C8.024,50.844 7.625,53.265 7.625,53.265 C7.392,53.365 7.005,53.47 6.638,53.47 C5.744,53.47 5.579,52.929 5.579,52.605 C5.579,51.225 7.308,50.632 7.308,49.272 C7.308,48.942 7.156,47.598 5.495,47.598 C5.282,47.598 4.014,47.596 4.008,47.596 C3.386,47.596 3.231,47.148 3.144,46.977 L3.071,47.001 C3.119,47.115 3,47.289 3,47.634 C3,48.187 3.324,48.519 3.929,48.519 C4.204,48.519 4.463,48.442 4.547,48.391 L4.606,48.442 C4.343,48.75 4.322,49.326 4.43,49.466 L4.494,49.464 C4.64,48.88 5.187,48.328 5.923,48.328 C6.824,48.328 6.82,49.094 6.82,49.279 C6.82,50.387 4.874,51.2 4.874,52.723 C4.874,54.268 6.506,54.599 7.452,54.354 C7.397,55.9 5.627,56.427 5.573,55.321 L5.502,55.325 C5.278,55.872 5.366,56.353 6.056,56.505 L6.037,56.572 C5.355,57.005 5.724,58.711 5.758,59.212 C5.81,59.935 5.091,59.849 5.032,59.827 L5.019,59.888 C5.528,60.513 6.158,59.942 6.158,59.942 C6.634,60.091 6.339,60.497 6.022,60.709 L6.03,60.779 C6.101,60.784 6.838,60.845 6.968,60.259 C7.295,60.649 7.774,60.506 7.875,60.455 C8.016,60.382 8.706,60.132 8.775,60.907 L8.834,60.898 C9.356,60.243 8.797,59.838 8.487,59.79 C8.512,59.754 8.93,59.408 9.305,59.888 L9.359,59.862 C9.402,59.031 8.726,58.955 8.288,59.317 C8.268,59.232 8.122,58.764 8.783,58.78 L8.797,58.724 C8.284,58.182 7.862,58.675 7.764,58.793 C7.535,59.063 6.966,58.955 6.914,58.948 C7.092,56.059 9.638,57.083 9.987,55.679 L10.044,55.659 C10.14,56.002 11.004,56.049 11.163,55.375 L11.136,55.331 C10.399,56.067 8.74,53.766 11.004,51.898 C12.938,50.303 14.67,51.192 15.329,51.717 C15.364,51.947 15.226,52.022 15.138,52.05 L15.147,52.109 C15.331,52.178 15.591,52.156 15.713,51.984 C16.128,52.274 15.772,52.639 15.604,52.74 L15.616,52.802 C15.997,52.871 16.311,52.482 16.326,52.258 L16.39,52.294 L16.39,53.936 C16.39,56.274 19.087,56.598 22.047,58.58 C25.006,56.598 27.703,56.274 27.703,53.936 L27.703,52.294 L27.768,52.258 C27.783,52.482 28.097,52.871 28.478,52.802 L28.49,52.74 C28.322,52.639 27.966,52.274 28.381,51.984 C28.503,52.156 28.763,52.178 28.947,52.109 L28.955,52.05 C28.868,52.022 28.73,51.947 28.765,51.717 C29.424,51.192 31.156,50.303 33.09,51.898 C35.354,53.766 33.694,56.067 32.958,55.331 L32.931,55.375 C33.09,56.049 33.954,56.002 34.049,55.659 L34.107,55.679 C34.457,57.083 37.002,56.059 37.18,58.948 C37.128,58.955 36.559,59.063 36.33,58.793 C36.233,58.675 35.81,58.182 35.297,58.724 L35.311,58.78 C35.972,58.764 35.827,59.232 35.806,59.317 C35.368,58.955 34.692,59.031 34.735,59.862 L34.789,59.888 C35.164,59.408 35.582,59.754 35.608,59.79 C35.297,59.838 34.738,60.243 35.26,60.898 L35.319,60.907 C35.387,60.132 36.077,60.382 36.219,60.455 C36.32,60.506 36.799,60.649 37.126,60.259 C37.256,60.845 37.993,60.784 38.064,60.779 L38.072,60.709 C37.755,60.497 37.46,60.091 37.936,59.942 C37.936,59.942 38.566,60.513 39.075,59.888 L39.062,59.827 C39.004,59.849 38.284,59.935 38.336,59.212 C38.37,58.711 38.739,57.005 38.057,56.572 L38.039,56.505 C38.728,56.353 38.816,55.872 38.592,55.325 L38.521,55.321 C38.467,56.427 36.697,55.9 36.642,54.354 C37.588,54.599 39.219,54.268 39.219,52.723 C39.219,51.2 37.274,50.387 37.274,49.279 C37.274,49.094 37.269,48.328 38.171,48.328 C38.907,48.328 39.454,48.88 39.6,49.464 L39.664,49.466 C39.772,49.326 39.752,48.75 39.488,48.442 L39.547,48.391 C39.63,48.442 39.89,48.519 40.165,48.519 C40.769,48.519 41.094,48.187 41.094,47.634 C41.094,47.289 40.975,47.115 41.023,47.001 L40.95,46.977 C40.863,47.148 40.708,47.596 40.086,47.596 C40.08,47.596 38.812,47.598 38.599,47.598 C36.938,47.598 36.786,48.942 36.786,49.272 C36.786,50.632 38.514,51.225 38.514,52.605 C38.514,52.929 38.35,53.47 37.456,53.47 C37.089,53.47 36.702,53.365 36.469,53.265 C36.469,53.265 36.07,50.844 34.899,50.007 C34.899,50.007 33.524,50.674 32.165,49.939 C31.126,49.377 30.636,49 29.726,49.63 C28.815,50.259 28.02,50.936 27.921,50.918 L27.703,50.875 L27.703,45.435 C28.126,45.391 28.155,45.769 28.136,45.869 C28.113,45.996 27.975,46.094 28.264,46.525 L28.323,46.509 C28.335,46.4 28.391,46.215 28.538,46.215 C28.68,46.215 29.327,46.703 29.88,47.255 C29.88,47.255 30.197,46.296 30.959,46.002 C30.526,45.936 28.661,45.483 28.661,44.668 C28.661,44.395 28.354,44.332 28.153,44.347 C28.144,44.324 27.839,43.6 27.27,43.978 L27.281,44.049 C27.532,44.107 27.639,44.368 27.65,44.651 C27.107,44.484 24.792,43.834 22.047,43.834 C20.715,43.834 19.487,43.988 18.511,44.164 L18.511,46.05 L17.746,46.05 L17.746,44.316 Z M22.047,42.566 C24.393,42.566 25.716,43.013 25.716,43.013 C25.729,41.829 25.721,41.168 26.401,41.267 C26.029,40.271 27.63,39.88 27.63,38.583 C27.63,37.728 27.025,37.631 26.846,37.631 C26.315,37.631 26.399,37.976 25.947,37.976 L25.833,38.003 C25.833,38.153 25.96,38.408 26.167,38.408 C26.444,38.408 26.45,38.13 26.656,38.13 C26.746,38.13 26.874,38.202 26.874,38.487 C26.874,39.039 26.512,39.65 26.086,40.124 C25.987,39.989 25.854,39.905 25.694,39.905 C25.442,39.905 25.22,40.169 25.22,40.494 C25.22,40.614 25.24,40.701 25.283,40.803 C25.141,40.882 25.015,40.927 24.92,40.927 C24.727,40.927 24.437,40.849 24.437,40.427 C24.437,39.487 25.697,38.659 25.697,37.468 C25.697,36.899 25.317,36.332 24.523,36.332 C23.672,36.332 23.83,37.11 23.093,37.11 L23.032,37.15 C23.032,37.199 23.16,37.63 23.541,37.63 C23.949,37.63 24.064,36.924 24.425,36.924 C24.56,36.924 24.762,37.004 24.762,37.482 C24.762,37.854 24.578,38.454 24.313,39.03 C24.217,38.935 24.088,38.865 23.942,38.865 C23.626,38.865 23.399,39.17 23.399,39.535 C23.399,39.766 23.49,39.989 23.647,40.136 C23.461,40.374 23.271,40.567 23.013,40.567 C22.504,40.567 22.279,40.278 22.279,39.963 C22.279,39.623 22.901,39.499 22.901,38.967 C22.901,38.606 22.666,38.402 22.44,38.402 C22.196,38.402 22.071,38.563 22.047,38.563 C22.022,38.563 21.897,38.402 21.654,38.402 C21.428,38.402 21.193,38.606 21.193,38.967 C21.193,39.499 21.815,39.623 21.815,39.963 C21.815,40.278 21.59,40.567 21.081,40.567 C20.823,40.567 20.633,40.374 20.447,40.136 C20.604,39.989 20.694,39.766 20.694,39.535 C20.694,39.17 20.468,38.865 20.151,38.865 C20.005,38.865 19.876,38.935 19.78,39.03 C19.516,38.454 19.332,37.854 19.332,37.482 C19.332,37.004 19.534,36.924 19.669,36.924 C20.029,36.924 20.144,37.63 20.553,37.63 C20.934,37.63 21.062,37.199 21.062,37.15 L21.001,37.11 C20.264,37.11 20.422,36.332 19.571,36.332 C18.777,36.332 18.397,36.899 18.397,37.468 C18.397,38.659 19.657,39.487 19.657,40.427 C19.657,40.849 19.367,40.927 19.174,40.927 C19.079,40.927 18.953,40.882 18.81,40.803 C18.854,40.701 18.873,40.614 18.873,40.494 C18.873,40.169 18.651,39.905 18.399,39.905 C18.239,39.905 18.107,39.989 18.008,40.124 C17.581,39.65 17.22,39.039 17.22,38.487 C17.22,38.202 17.349,38.13 17.437,38.13 C17.644,38.13 17.65,38.408 17.927,38.408 C18.134,38.408 18.261,38.153 18.261,38.003 L18.147,37.976 C17.695,37.976 17.779,37.631 17.248,37.631 C17.068,37.631 16.464,37.728 16.464,38.583 C16.464,39.88 18.065,40.271 17.693,41.267 C18.374,41.168 18.365,41.829 18.378,43.013 C18.378,43.013 19.701,42.566 22.047,42.566 Z M22.047,36.93 C21.723,36.93 21.461,37.192 21.461,37.516 C21.461,37.838 21.723,38.101 22.047,38.101 C22.37,38.101 22.632,37.838 22.632,37.516 C22.632,37.192 22.37,36.93 22.047,36.93 Z M21.753,33.361 C21.753,33.502 21.814,33.626 21.862,33.694 C21.961,33.835 21.945,33.911 21.899,33.958 C21.853,34.005 21.776,34.02 21.635,33.922 C21.566,33.873 21.443,33.812 21.302,33.812 C21.061,33.812 20.941,33.971 20.941,34.106 C20.941,34.241 21.061,34.4 21.302,34.4 C21.443,34.4 21.566,34.34 21.635,34.29 C21.776,34.192 21.853,34.208 21.899,34.255 C21.945,34.299 21.878,34.785 21.823,35.166 C21.424,35.25 21.232,35.569 21.232,35.756 C21.232,36.236 21.745,36.514 22.047,36.675 C22.348,36.514 22.862,36.236 22.862,35.756 C22.862,35.569 22.67,35.25 22.271,35.166 C22.216,34.785 22.149,34.299 22.194,34.255 C22.24,34.208 22.318,34.192 22.459,34.29 C22.527,34.34 22.651,34.4 22.792,34.4 C23.033,34.4 23.152,34.241 23.152,34.106 C23.152,33.971 23.033,33.812 22.792,33.812 C22.651,33.812 22.527,33.873 22.459,33.922 C22.318,34.02 22.24,34.005 22.194,33.958 C22.149,33.911 22.133,33.835 22.231,33.694 C22.28,33.626 22.341,33.502 22.341,33.361 C22.341,33.12 22.182,33 22.047,33 C21.911,33 21.753,33.12 21.753,33.361 Z M33.541,42.752 C33.422,43.312 32.926,43.39 32.622,43.051 C32.648,42.782 32.916,42.719 33.541,42.752 Z M37.161,45.911 L37.112,45.875 C36.633,46.115 36.374,45.6 36.49,45.068 C36.555,44.772 36.816,43.968 36.164,43.317 C35.523,43.683 35.092,43.081 35.201,42.79 C35.231,42.713 35.281,42.7 35.281,42.799 C35.281,43.003 35.487,43.151 35.636,43.151 C35.894,43.151 36.365,42.862 36.405,42.423 C35.742,41.988 34.624,42.165 34.401,42.983 C34.374,43.086 34.25,43.076 34.258,42.974 C34.262,42.904 34.292,42.419 34.775,42.174 C35.211,41.955 35.052,41.63 34.937,41.514 L34.829,41.525 C34.998,41.815 34.638,41.945 34.139,41.883 C33.085,41.742 32.738,42.134 32.682,42.406 C32.451,42.465 31.555,42.968 31.555,43.154 L31.692,43.384 C31.692,43.384 31.671,43.764 31.951,44.014 C33.071,43.337 33.382,43.97 33.267,44.418 C33.267,44.418 33.069,44.579 32.313,44.581 L32.414,44.93 C32.414,44.93 32.241,45.147 32.363,45.348 C32.363,45.348 32.751,45.056 33.421,45.087 C33.421,45.087 33.849,45.739 32.258,46.046 C30.665,46.352 30.16,47.858 30.16,48.683 L30.214,48.738 C31.503,48.498 32.093,49.835 33.766,49.683 C33.62,49.29 33.78,48.879 33.78,48.879 C33.912,49.233 34.228,49.464 34.453,49.584 C35.047,49.451 35.438,49.168 35.527,48.998 C35.527,48.998 34.896,48.475 35.308,47.533 C35.308,47.533 35.704,48.161 36.523,47.82 L36.531,47.724 C35.422,47.366 36.144,46.43 36.212,46.337 C36.726,46.624 37.161,46.246 37.161,45.911 Z M30.871,44.357 C30.545,44.357 30.235,44.212 30.176,43.96 C30.163,43.896 30.108,43.874 30.083,43.968 C29.927,44.533 30.326,44.797 30.716,44.797 C31.146,44.797 31.387,44.489 31.999,44.385 C32.268,44.339 32.452,44.381 32.452,44.299 L31.999,44.217 C31.362,44.217 31.275,44.357 30.871,44.357 Z M11.472,43.051 C11.168,43.39 10.672,43.312 10.553,42.752 C11.178,42.719 11.447,42.782 11.472,43.051 Z M7.882,46.337 C7.95,46.43 8.672,47.366 7.563,47.724 L7.571,47.82 C8.39,48.161 8.786,47.533 8.786,47.533 C9.198,48.475 8.567,48.998 8.567,48.998 C8.656,49.168 9.047,49.451 9.641,49.584 C9.865,49.464 10.182,49.233 10.314,48.879 C10.314,48.879 10.474,49.29 10.329,49.683 C12.001,49.835 12.592,48.498 13.88,48.738 L13.934,48.683 C13.934,47.858 13.429,46.352 11.835,46.046 C10.245,45.739 10.673,45.087 10.673,45.087 C11.343,45.056 11.731,45.348 11.731,45.348 C11.853,45.147 11.68,44.93 11.68,44.93 L11.78,44.581 C11.025,44.579 10.827,44.418 10.827,44.418 C10.711,43.97 11.022,43.337 12.143,44.014 C12.423,43.764 12.402,43.384 12.402,43.384 L12.539,43.154 C12.539,42.968 11.643,42.465 11.412,42.406 C11.356,42.134 11.009,41.742 9.955,41.883 C9.456,41.945 9.096,41.815 9.264,41.525 L9.157,41.514 C9.042,41.63 8.882,41.955 9.319,42.174 C9.802,42.419 9.832,42.904 9.835,42.974 C9.843,43.076 9.72,43.086 9.693,42.983 C9.47,42.165 8.352,41.988 7.689,42.423 C7.728,42.862 8.199,43.151 8.458,43.151 C8.606,43.151 8.812,43.003 8.812,42.799 C8.812,42.7 8.863,42.713 8.892,42.79 C9.002,43.081 8.571,43.683 7.93,43.317 C7.279,43.968 7.539,44.772 7.604,45.068 C7.721,45.6 7.461,46.115 6.982,45.875 L6.932,45.911 C6.932,46.246 7.369,46.624 7.882,46.337 Z M12.095,44.217 L11.641,44.299 C11.641,44.381 11.826,44.339 12.095,44.385 C12.707,44.489 12.948,44.797 13.378,44.797 C13.768,44.797 14.167,44.533 14.011,43.968 C13.986,43.874 13.931,43.896 13.918,43.96 C13.859,44.212 13.549,44.357 13.223,44.357 C12.818,44.357 12.732,44.217 12.095,44.217 Z M25.496,47.876 L26.261,47.876 L26.261,45.754 L25.496,45.754 L25.496,47.876 Z M22.047,57.227 L22.812,57.227 L22.812,55.106 L22.047,55.106 L22.047,57.227 Z" id="Fill-5" fill="#FFFFFE"></path>
        </g>
    </g>
</svg>